<?xml version="1.0" encoding="UTF-8"?>
<svg version="1.1" xmlns="http://www.w3.org/2000/svg" width="180" height="180">
<path d="M0 0 C0 0.66 0 1.32 0 2 C1.175625 2.4640625 1.175625 2.4640625 2.375 2.9375 C5 4 5 4 7 5 C7 5.66 7 6.32 7 7 C7.99 7 8.98 7 10 7 C12.83879543 9.53997486 15.28038943 12.31034285 17.6875 15.25 C19.7042322 18.01742194 19.7042322 18.01742194 22 19 C22 19.99 22 20.98 22 22 C22.66 22 23.32 22 24 22 C27 26.38461538 27 26.38461538 27 29 C27.66 29 28.32 29 29 29 C41.31761329 50.75993356 45.352198 75.8702956 38.9375 100.375 C36.62406794 108.38701668 33.10082539 115.75560241 29 123 C28.34 123 27.68 123 27 123 C26.690625 123.78375 26.38125 124.5675 26.0625 125.375 C25 128 25 128 24 130 C23.34 130 22.68 130 22 130 C22 130.99 22 131.98 22 133 C19.46002514 135.83879543 16.68965715 138.28038943 13.75 140.6875 C10.98257806 142.7042322 10.98257806 142.7042322 10 145 C9.01 145 8.02 145 7 145 C7 145.66 7 146.32 7 147 C2.61538462 150 2.61538462 150 0 150 C0 150.66 0 151.32 0 152 C-21.75993356 164.31761329 -46.8702956 168.352198 -71.375 161.9375 C-79.38701668 159.62406794 -86.75560241 156.10082539 -94 152 C-94 151.34 -94 150.68 -94 150 C-94.78375 149.690625 -95.5675 149.38125 -96.375 149.0625 C-99 148 -99 148 -101 147 C-101 146.34 -101 145.68 -101 145 C-101.99 145 -102.98 145 -104 145 C-106.83879543 142.46002514 -109.28038943 139.68965715 -111.6875 136.75 C-113.7042322 133.98257806 -113.7042322 133.98257806 -116 133 C-116 132.01 -116 131.02 -116 130 C-116.66 130 -117.32 130 -118 130 C-121 125.61538462 -121 125.61538462 -121 123 C-121.66 123 -122.32 123 -123 123 C-135.31761329 101.24006644 -139.352198 76.1297044 -132.9375 51.625 C-130.62406794 43.61298332 -127.10082539 36.24439759 -123 29 C-122.34 29 -121.68 29 -121 29 C-120.5359375 27.824375 -120.5359375 27.824375 -120.0625 26.625 C-119 24 -119 24 -118 22 C-117.34 22 -116.68 22 -116 22 C-116 21.01 -116 20.02 -116 19 C-113.46002514 16.16120457 -110.68965715 13.71961057 -107.75 11.3125 C-104.98257806 9.2957678 -104.98257806 9.2957678 -104 7 C-103.01 7 -102.02 7 -101 7 C-101 6.34 -101 5.68 -101 5 C-96.61538462 2 -96.61538462 2 -94 2 C-94 1.34 -94 0.68 -94 0 C-64.2911615 -16.81723811 -29.7088385 -16.81723811 0 0 Z " fill="#010000" transform="translate(137,14)"/>
<path d="M0 0 C2.88892824 1.34708847 3.60906162 3.11542814 5.10791016 5.90429688 C5.67622559 6.94336182 6.24454102 7.98242676 6.83007812 9.05297852 C7.42449707 10.16922607 8.01891602 11.28547363 8.63134766 12.43554688 C9.87463249 14.71631684 11.11943286 16.99626129 12.36572266 19.27539062 C12.97867188 20.40315918 13.59162109 21.53092773 14.22314453 22.69287109 C16.69039416 27.1794551 19.2663901 31.59634645 21.88134766 35.99804688 C22.30367676 36.71089844 22.72600586 37.42375 23.16113281 38.15820312 C24.10710563 39.75209702 25.05628717 41.3440861 26.00634766 42.93554688 C25.59352539 43.41258057 25.18070313 43.88961426 24.75537109 44.38110352 C24.21428711 45.00879639 23.67320313 45.63648926 23.11572266 46.28320312 C22.57915039 46.90461182 22.04257813 47.52602051 21.48974609 48.16625977 C17.37005606 53.07991903 16.65462891 56.34242187 15.00634766 62.93554688 C-1.82365234 62.93554688 -18.65365234 62.93554688 -35.99365234 62.93554688 C-35.99365234 42.58670357 -30.01711351 26.24413516 -15.71630859 11.60742188 C-3.7642692 -0.1216957 -3.7642692 -0.1216957 0 0 Z " fill="#EECB42" transform="translate(52.99365234375,27.064453125)"/>
<path d="M0 0 C9.41552657 1.69267893 18.51373042 12.28163514 23.9453125 19.6328125 C33.21549987 33.71868163 37 45.93776446 37 63 C20.17 63 3.34 63 -14 63 C-14.99 59.7 -15.98 56.4 -17 53 C-19.25444709 49.07289861 -21.78795703 46.15169143 -25 43 C-16.72986273 28.62918633 -8.44586728 14.26854755 0 0 Z " fill="#EECB42" transform="translate(126,27)"/>
<path d="M0 0 C1.0621875 0.08378906 2.124375 0.16757813 3.21875 0.25390625 C4.64580379 0.35717988 6.07288891 0.46002128 7.5 0.5625 C8.19609375 0.61857422 8.8921875 0.67464844 9.609375 0.73242188 C14.56370848 1.07647281 19.08853739 0.74667506 24 0 C24.5576001 0.95700806 24.5576001 0.95700806 25.12646484 1.93334961 C26.24145783 3.84670506 27.35680588 5.75985361 28.47241211 7.67285156 C29.74559477 9.85750428 31.01723102 12.04305892 32.28735352 14.22949219 C35.21320688 19.25921757 38.1506294 24.27701377 41.19140625 29.23828125 C41.65949707 30.00857666 42.12758789 30.77887207 42.60986328 31.57250977 C43.47694409 32.99463072 44.35383893 34.41082698 45.24169922 35.82006836 C48.0668674 40.47975362 48.0668674 40.47975362 47.7277832 43.11791992 C47 45 47 45 44.953125 46.37890625 C26.38290446 54.51008663 5.64781726 56.27675656 -13.66015625 49.484375 C-17.28570634 47.87301941 -20.59416531 46.03048489 -24 44 C-23.3211122 40.48881285 -21.90489857 37.77461607 -20.15625 34.66796875 C-19.28154053 33.10840454 -19.28154053 33.10840454 -18.38916016 31.51733398 C-17.45402588 29.86906616 -17.45402588 29.86906616 -16.5 28.1875 C-15.87013184 27.06996338 -15.24026367 25.95242676 -14.59130859 24.80102539 C-9.86625507 16.44860319 -5.02484448 8.17534221 0 0 Z " fill="#EECA42" transform="translate(78,110)"/>
<path d="M0 0 C4.14333007 3.13549302 6.01256924 5.51028621 7.25 10.625 C7.6718405 15.94822538 5.75602504 19.90826116 2.5 24.0625 C-1.45856976 27.11625382 -4.65246967 27.75 -9.625 27.75 C-14.44848551 26.96305899 -17.57652902 24.41957074 -20.6875 20.75 C-22.76543705 16.76728731 -23.08327228 13.23835129 -22.35546875 8.77734375 C-20.72466572 3.82771349 -17.30227846 0.57456772 -12.75 -1.75 C-8.03361499 -2.52002204 -4.33382992 -2.01573485 0 0 Z " fill="#EDC941" transform="translate(97.6875,77.25)"/>
</svg>
